<svg width="40" height="40" viewBox="0 0 40 40" fill="none" xmlns="http://www.w3.org/2000/svg">
<g clip-path="url(#clip0_113_29)">
<path fill-rule="evenodd" clip-rule="evenodd" d="M31.0402 11.877C31.0402 11.5774 28.2209 8.97523 28.2196 8.97523C27.697 8.97523 26.0759 10.4114 25.3479 10.5892C24.9207 10.6935 24.5033 10.4252 24.1671 10.2893C22.6778 9.6874 22.7502 9.69393 22.2293 6.91953C22.1831 6.6732 22.2077 6.40502 21.9144 6.40502H18.0981C17.761 6.40502 17.821 6.81187 17.6668 7.46632C17.5788 7.83923 17.4978 8.26862 17.4023 8.69453C17.1336 9.89382 16.9604 9.84527 15.905 10.2659C14.955 10.6445 14.8644 10.8607 13.7829 10.1371C11.4337 8.56503 12.0968 8.63013 10.4032 10.3226C8.64008 12.0847 8.74934 11.5733 9.47378 12.7853C10.5631 14.6082 10.9022 14.3241 10.2869 15.8443C9.89299 16.8176 9.94309 17.1307 8.75922 17.3854L6.91508 17.781C6.66859 17.8271 6.40025 17.8025 6.40025 18.0956V21.9096C6.40025 22.2465 6.80735 22.1865 7.4622 22.3406C7.83534 22.4286 8.26499 22.5095 8.69116 22.6049C9.89118 22.8735 9.8426 23.0466 10.2635 24.1013C10.6423 25.0508 10.8586 25.1413 10.1346 26.2221C8.56159 28.5699 8.62672 27.9072 10.3203 29.5998C12.0666 31.345 11.4177 31.46 13.6841 29.9353C14.8271 29.1663 14.8804 29.3259 15.8453 29.716C16.8192 30.1097 17.1325 30.0596 17.3873 31.2428L17.7831 33.0858C17.8293 33.3321 17.8047 33.6003 18.098 33.6003H21.9143C22.1925 33.6003 22.162 33.4286 22.2172 33.1567L22.6101 31.3108C22.8788 30.1115 23.052 30.16 24.1074 29.7394C25.2995 29.2644 25.1593 29.2319 26.2247 29.8729C28.63 31.3205 27.7613 31.5294 29.6092 29.6827C31.3555 27.9374 31.4706 28.5859 29.9449 26.3209C29.1755 25.1786 29.3351 25.1253 29.7255 24.161C30.3278 22.6727 30.3212 22.745 33.0973 22.2244C33.3438 22.1782 33.6122 22.2028 33.6122 21.9097V18.0957C33.6122 17.7588 33.2051 17.8188 32.5502 17.6647C30.3344 17.1431 30.3804 17.4866 29.7489 15.9041C29.6244 15.592 29.3688 15.143 29.401 14.795C29.4312 14.468 29.7127 14.0298 29.8778 13.7835C30.0427 13.5374 31.0402 12.0869 31.0402 11.8776V11.877ZM28.0536 7.89724C28.7354 7.89724 28.9628 8.2664 29.3187 8.62276L31.3513 10.6541C32.5199 11.8211 32.3338 11.9816 31.0234 13.933C30.3546 14.9289 30.3532 14.7661 30.9033 15.9937C31.2135 16.6861 33.5565 16.5007 34.2921 17.1671C34.5498 17.4007 34.6907 17.8679 34.6907 18.3441C34.6907 19.4902 34.906 22.2116 34.3351 22.7977C33.6241 23.5277 31.2251 23.2929 30.9033 24.011C30.839 24.1546 30.4856 25.0593 30.4846 25.0732C30.4592 25.4802 32.1187 27.4057 32.1187 28.0448C32.1187 28.8475 31.1352 29.5667 30.3557 30.3456C28.2303 32.4697 28.5414 32.6642 26.0793 31.0128C25.0827 30.3445 25.2457 30.3431 24.0173 30.8928C23.3245 31.2028 23.51 33.5444 22.8432 34.2795C22.6095 34.5371 22.142 34.6779 21.6654 34.6779C20.5187 34.6779 17.7957 34.893 17.2092 34.3225C17.1362 34.2515 16.9577 33.9814 16.9119 33.8733C16.5982 33.1333 16.5855 31.1571 15.9949 30.8928C14.6851 30.3066 14.9504 30.3779 13.9335 31.0134C11.3227 32.6451 12.0592 32.7442 8.66096 29.3506C7.4924 28.1836 7.67849 28.0231 8.98887 26.0717C9.65763 25.0758 9.65903 25.2387 9.10898 24.011C8.63897 22.962 5.3216 24.0706 5.3216 21.6606C5.3216 20.5146 5.10629 17.7932 5.67721 17.207C6.38814 16.4771 8.7872 16.7119 9.10898 15.9937C9.66696 14.7483 9.64678 14.9127 8.98887 13.933C7.25955 11.3578 7.42601 11.8907 10.6519 8.66421C11.5914 7.72462 11.8169 7.63212 12.9704 8.37851C13.3143 8.60106 13.5935 8.76436 13.9328 8.99192C14.1089 9.11001 14.7262 9.51951 14.8727 9.53036C14.9668 9.53731 15.8044 9.19722 15.9949 9.11196C17.0446 8.64223 15.9354 5.32689 18.3468 5.32689C19.4935 5.32689 22.2166 5.11171 22.8031 5.68228C23.24 6.10722 23.3548 7.2574 23.5256 8.02799C23.6304 8.50119 23.6056 8.92766 24.0173 9.11196C25.2635 9.66959 25.099 9.64942 26.0793 8.99192C26.4309 8.75601 27.6324 7.89724 28.0536 7.89724Z" fill="black"/>
<path fill-rule="evenodd" clip-rule="evenodd" d="M39.9999 19.3393C39.9999 22.1786 39.8171 24.3037 38.8142 26.8602C38.4796 27.713 38.1567 28.5802 37.7119 29.3238C37.4296 29.7956 36.6719 31.4445 36.1835 31.4445C34.9789 31.4445 36.0566 30.1224 36.2306 29.8333C37.8529 27.1375 38.4879 24.9458 38.8988 21.8043L39.0043 20.0857C39.0043 18.3136 38.6697 16.2768 38.2106 14.6605C36.8824 9.98453 33.9842 6.54706 30.0452 3.9169C29.4437 3.51519 28.7227 3.17747 28.0534 2.83974C26.9213 2.26848 25.7888 1.90878 24.5703 1.59484C22.7672 1.1304 22.0375 1.21191 20.4085 1.02816L17.4576 1.20537C16.6035 1.31915 15.624 1.52515 14.8521 1.75216C14.0166 1.9978 13.2819 2.23551 12.515 2.56712L11.4438 3.07176C11.1419 3.24855 10.6531 3.4131 10.4653 3.66917C10.8968 3.66917 11.3192 3.80173 11.7455 3.88227C13.3327 4.18216 12.3452 4.99587 12.2076 4.99587C11.6973 4.99587 10.0358 4.59374 9.26683 4.45256C8.20071 4.25685 8.52221 3.88588 8.90983 1.94884C9.05235 1.23625 9.06947 0.352855 9.6358 0.352855C10.521 0.352855 10.0531 1.67899 9.8017 2.75726C9.83037 2.74961 11.9465 1.63309 12.9021 1.29551C16.8487 -0.0986496 20.7805 -0.425802 24.9011 0.601279C26.7215 1.05501 26.9418 1.24279 28.4566 1.85676C28.7221 1.96428 28.9651 2.07847 29.2415 2.23315L30.7562 3.12378C31.0281 3.28944 31.2455 3.43493 31.503 3.62118L34.1743 5.84338L35.3066 7.11624C36.3222 8.41525 37.4928 9.93209 38.1399 11.498C39.2143 14.0981 40 16.3363 40 19.3397L39.9999 19.3393Z" fill="black"/>
<path fill-rule="evenodd" clip-rule="evenodd" d="M4.40924 9.05811L3.13713 11.3519C1.0142 15.5964 0.54405 19.5174 1.5115 24.225C1.83579 25.8027 2.64443 27.9249 3.48063 29.3046L4.40896 30.7812C4.7416 31.2832 5.07299 31.6571 5.45156 32.1437C5.8126 32.6077 6.17934 33.0049 6.587 33.4133L9.17089 35.5571C9.43547 35.7326 9.61348 35.85 9.86804 36.0212C10.1417 36.2053 10.3026 36.2802 10.5962 36.4542C15.9427 39.6221 23.0802 39.8057 28.5638 36.9287C28.8499 36.7786 29.3787 36.5655 29.5469 36.336C29.2661 36.3126 29.0146 36.2245 28.7341 36.1534C28.51 36.0966 28.1991 36.0488 27.9232 35.9688C26.9976 35.7005 27.6251 34.9266 27.8048 34.9266L31.152 35.6441C31.7587 35.9361 31.3165 36.9185 31.0576 38.0116C30.8522 38.8791 30.8604 39.6525 30.2107 39.6525C29.2814 39.6525 30.116 37.7695 30.1277 37.2481C29.2233 37.8533 27.0887 38.794 25.9447 39.1201C22.3439 40.1467 18.7806 40.3186 15.1113 39.404L12.4202 38.5282C11.1815 38.0335 9.60944 37.1796 8.50922 36.3841L5.83793 34.1619C5.59283 33.9223 5.52032 33.7722 5.30208 33.5367C4.11682 32.2581 3.64792 31.6137 2.71374 30.0709C1.74922 28.4779 1.0561 26.7573 0.609329 24.9606C-0.333481 21.1694 -0.21476 16.7451 1.19778 13.1447C1.6234 12.0599 2.0472 11.053 2.61868 10.0876C2.90984 9.59557 3.41632 8.56042 3.82844 8.56042C4.16359 8.56042 4.40924 8.74097 4.40924 9.05783V9.05811Z" fill="black"/>
<path fill-rule="evenodd" clip-rule="evenodd" d="M27.5554 20.0853C27.5554 15.8045 24.2063 12.4575 19.9228 12.4575C15.8635 12.4575 12.4562 15.8186 12.4562 20.0853C12.4562 24.1305 15.8277 27.5474 20.0887 27.5474C24.1339 27.5474 27.5554 24.128 27.5554 20.0853ZM20.1717 11.4625C20.5441 11.5522 21.7178 11.2728 23.6845 12.2634C24.2416 12.5441 24.5641 12.7046 25.044 13.0604C26.3576 14.0344 27.2532 15.1385 27.9117 16.6616C28.6688 18.4135 28.7618 20.2475 28.3362 22.1092C28.0286 23.4548 26.953 25.291 25.9597 26.2012C25.7669 26.3779 25.5839 26.5138 25.3731 26.6929C22.0807 29.4922 16.6927 29.0836 13.8033 25.9524C11.4586 23.4112 10.6569 19.5085 12.2621 16.326C12.9337 14.9943 13.4996 14.2397 14.639 13.3123C14.8558 13.1358 15.0299 13.0091 15.2592 12.8543C15.7023 12.5551 16.1452 12.325 16.6629 12.1015C18.1133 11.4753 18.5113 11.5782 19.7404 11.4337L20.1717 11.4625Z" fill="black"/>
<path fill-rule="evenodd" clip-rule="evenodd" d="M21.499 23.8163C21.499 24.5933 20.8083 24.3767 20.6614 24.2432C20.46 24.0603 18.4294 16.358 18.4294 16.1055C18.4294 15.8209 18.8842 15.475 19.2295 15.711C19.4848 15.8855 19.5831 16.482 19.6574 16.7853C19.8579 17.6027 20.0824 18.3176 20.2882 19.1397C20.4862 19.9313 20.7202 20.6901 20.9018 21.4284C21.0159 21.8926 21.499 23.4858 21.499 23.8164V23.8163Z" fill="black"/>
<path fill-rule="evenodd" clip-rule="evenodd" d="M17.2684 17.1005C17.2684 18.0044 15.4098 19.0617 14.7796 20.0024C15.4099 20.9431 17.2684 22.0004 17.2684 22.9044C17.2684 23.154 16.8546 23.5826 16.2083 22.9692L14.3441 21.101C13.008 19.7657 13.206 19.9925 16.1668 17.0772C16.2933 16.9527 16.5095 16.7583 16.7153 16.7253C16.9253 16.6917 17.2686 16.813 17.2686 17.1005H17.2684Z" fill="black"/>
<path fill-rule="evenodd" clip-rule="evenodd" d="M26.4775 20.0025C26.4775 20.4754 25.249 21.5205 24.756 22.0131C24.4402 22.3287 23.6637 23.2209 23.2974 23.2796C22.778 23.3628 22.7442 22.96 22.7442 22.6556C22.7442 22.3098 24.913 20.48 25.233 20.0025C24.6026 19.0618 22.7442 18.0045 22.7442 17.1006C22.7442 16.8509 23.1579 16.4223 23.8043 17.0357L25.6685 18.9039C25.9353 19.1706 26.4774 19.5482 26.4774 20.0025H26.4775Z" fill="black"/>
</g>
<defs>
<clipPath id="clip0_113_29">
<rect width="40" height="40" fill="white" transform="matrix(-1 0 0 1 40 0)"/>
</clipPath>
</defs>
</svg>
