<svg width="40" height="40" viewBox="0 0 40 40" fill="none" xmlns="http://www.w3.org/2000/svg">
<g clip-path="url(#clip0_113_45)">
<path fill-rule="evenodd" clip-rule="evenodd" d="M24.4349 30.3199C23.8242 30.3667 23.4022 30.5599 22.4349 30.5599H20.9567C20.1727 30.5599 19.6814 30.333 19.0437 30.3199L17.9132 26.72C19.1906 26.72 20.4053 26.88 21.7393 26.88C23.0733 26.88 24.288 26.72 25.5654 26.72L25.0334 28.5505C24.9426 28.8377 24.8642 29.0962 24.7503 29.41C24.647 29.6946 24.4584 30.0608 24.4349 30.3199ZM25.7392 29.9199C25.952 29.0797 26.6762 27.365 26.6957 26.56C27.9569 26.56 30.9624 25.847 31.3045 25.8399C31.2278 26.1038 31.0201 26.3102 30.8339 26.527L30.282 27.1393C29.8687 27.5709 29.4431 27.8801 28.9761 28.2579C28.3724 28.7464 26.6064 29.734 25.7392 29.9199ZM12.174 25.8399C12.522 25.8471 15.5163 26.56 16.7827 26.56C16.8041 27.4457 17.5319 29.1016 17.7393 29.9199C16.8378 29.7268 15.2408 28.7778 14.5572 28.2874C13.8062 27.7483 12.6208 26.6168 12.174 25.8399ZM21.7392 25.8399C20.2772 25.8399 19.0367 25.6799 17.6522 25.6799C17.6522 25.1437 17.1305 22.2813 17.1305 20.24C17.6432 20.2505 18.2155 20.3933 18.7821 20.4004C19.4162 20.4084 19.8765 20.4799 20.6087 20.4799C23.4907 20.4799 23.5235 20.4562 26.3479 20.24C26.3479 21.9275 26.1473 23.6718 25.8699 25.2402C25.8062 25.6004 25.9012 25.5748 25.6346 25.6638L21.7392 25.8399ZM10.2609 20.5599C10.2609 19.0704 10.0842 18.6486 10.6557 18.8175C11.4696 19.058 11.9028 19.2393 12.852 19.4561C13.7266 19.6558 15.0202 20.0049 16.0001 20.0798L16.3088 24.1959C16.3771 24.627 16.5127 25.148 16.5218 25.5199C15.3774 25.4323 12.7671 24.9043 11.6633 24.6297C11.2324 24.5225 11.3728 24.6474 11.0557 23.9087C10.6393 22.9383 10.2609 21.7127 10.2609 20.56V20.5599ZM26.9566 25.5199C26.9672 25.0805 27.2648 23.744 27.305 22.8805C27.346 22.0013 27.4783 21.0036 27.4783 20.0799C28.3113 20.0629 29.1481 19.6956 29.913 19.68C29.913 21.4115 29.9184 21.12 32.4347 21.12C33.2468 21.12 33.0434 20.3604 33.0434 19.28H34.4347V20.6399C33.396 20.6399 33.2621 20.5029 33.1245 21.5145C33.0694 21.9206 32.984 22.3173 32.8886 22.6574L32.3166 24.2112C32.1103 24.6818 31.8902 24.6474 30.7762 24.8741C29.7333 25.0862 27.9249 25.4459 26.9566 25.52V25.5199ZM27.3913 18.7999V18.4C28.5869 18.4 28.3479 17.915 28.3479 16.64H29.9132C29.9132 18.9412 30.2474 18.5576 28.6597 18.8468C28.2631 18.919 27.3915 19.2315 27.3915 18.8L27.3913 18.7999ZM26.0871 16.2399H27.2175V17.3599H26.0871V16.2399ZM24.9566 15.9999C24.9566 18.2272 24.7199 18.4 26.2609 18.4C26.2894 18.7156 26.3479 18.775 26.3479 19.1999C24.7026 19.3259 24.713 19.4458 22.9563 19.4397C22.4802 19.438 22.0416 19.5116 21.7392 19.5116L18.2846 19.338C18.0185 19.3069 17.4237 19.2224 17.1305 19.1999L17.7392 13.9999C18.8181 13.9999 19.7104 14.1599 20.8695 14.1599C22.9122 14.1599 24.6568 14.08 26.6956 14.08V15.2C25.663 15.2 24.9565 15.0642 24.9565 15.9999H24.9566ZM16.087 18.4799V19.0399C15.1293 19.0202 11.2721 18.0452 10.5217 17.6799C11.1322 15.2693 11.7235 14.8139 12.9565 13.12C13.3264 13.1483 15.4303 13.7432 16.6956 13.84C16.4202 14.3681 16.0869 17.5366 16.0869 18.48L16.087 18.4799ZM19.0436 9.67996C19.4965 9.67071 20.2257 9.43999 21.3044 9.43999H22.5218C23.0045 9.43999 23.0375 9.51995 23.4784 9.51995V13.1199C21.9293 13.1199 20.2101 13.1407 18.7009 13.0352C18.3647 13.0117 18.4054 12.9599 18.0001 12.9599C18.1433 12.3945 18.2935 11.8871 18.4715 11.3136C18.6045 10.885 19.0137 10.0101 19.0436 9.67985V9.67996ZM16.8696 12.8C16.0449 12.8 14.5006 12.3321 13.9131 12.3199C14.2124 11.9087 15.1344 11.3124 15.6351 11.0242C15.9818 10.8247 16.2525 10.6809 16.6365 10.5054C17.0212 10.3297 17.3815 10.2378 17.7392 10.0798L16.8696 12.7999V12.8ZM9.06454 4.81935C9.71472 5.21348 11.526 7.36001 12.087 7.36001C12.3961 7.36001 13.2417 6.80459 13.7342 6.55537C15.6957 5.56254 16.4809 5.46844 18.4586 4.98181C18.8242 4.89186 19.0434 4.70749 19.0434 4.31995V1.03992H21.2174V8.39995C19.5837 8.39995 17.5212 8.97494 16.4052 9.49273C15.6804 9.82892 15.1064 10.0904 14.4714 10.5136C12.5346 11.8045 11.4237 13.0719 10.3188 15.0933C8.70697 18.0421 8.748 21.8797 10.2893 24.8539C11.1923 26.5964 11.2273 26.4073 12.3981 27.7939C13.1567 28.6924 15.1946 30.0638 16.3224 30.5035C17.6774 31.0319 19.3318 31.6 21.2175 31.6V38.9601H19.0436V35.68C19.0436 34.8601 17.554 34.9674 15.503 34.2174C14.8731 33.987 14.3448 33.7775 13.7892 33.4742C13.3684 33.2444 12.4272 32.6401 12.0001 32.6401C11.6272 32.6401 9.56992 34.8758 9.04351 35.2001L5.19638 31.6194C5.40486 31.4878 8.00005 29.2061 8.00005 28.9601C8.00005 28.5263 7.82693 28.4605 7.60192 28.1263C6.75354 26.8663 6.07238 25.4642 5.65148 24.0007C5.11456 22.1334 5.9812 22.4801 1.13037 22.4801V17.52H4.69562C5.63611 17.52 5.4096 16.282 6.28491 14.2621L7.1022 12.694C7.26585 12.3901 7.39563 12.1876 7.56921 11.9237C8.28076 10.842 8.22078 11.1231 6.67391 9.70005C6.29438 9.35079 5.60121 8.63652 5.21741 8.40006L9.06454 4.81945V4.81935ZM17.9131 0.240059V4.00003C17.5968 4.13963 16.7678 4.28976 16.3581 4.40947C15.851 4.55769 15.4035 4.71717 14.8942 4.9027L12.1739 6.16007C11.6118 5.81377 9.72212 3.82013 9.34872 3.6312C8.96145 3.43535 8.74407 3.6649 8.49791 3.89796L4.28131 7.77892C4.0266 8.00656 3.7519 8.19571 3.9182 8.54944C4.12819 8.9961 6.24122 10.5757 6.69564 11.2C6.64409 11.4033 5.67899 12.8895 5.35343 13.6452L4.57786 15.7317C4.49685 15.99 4.45051 16.2831 4.34777 16.48H0.260836C0.140877 16.6448 0 16.6876 0 16.88V23.12C0 23.3123 0.140877 23.3552 0.260836 23.52H4.34777C4.59959 24.0028 4.99171 26.1538 6.33044 28.1759C6.46196 28.3747 6.63057 28.5759 6.69564 28.7999C6.37297 29.2432 5.20817 30.2083 4.71735 30.6599C3.36117 31.9076 3.38879 31.3976 6.84784 34.5799C7.1371 34.846 8.69888 36.3999 8.9566 36.3999H9.21743C9.59026 36.3999 11.6476 34.1642 12.174 33.8399L13.4783 34.48C13.9342 34.6886 14.3137 34.8858 14.8318 35.0747L17.0947 35.7928C17.3765 35.8572 17.7075 35.909 17.9132 35.9999V39.7598C18.0923 39.8702 18.1389 39.9998 18.348 39.9998H21.8262C22.029 39.9998 22.261 39.7863 22.261 39.5998V31.5998C25.5148 31.5998 28.6314 30.0929 30.761 28.1399C32.3523 26.6804 33.5133 24.7683 34.0349 22.6719C34.2663 21.7415 34.0305 21.7275 34.5174 21.6757C35.8404 21.5351 35.5653 21.7794 35.5653 18.7199C35.5653 18.5333 35.3333 18.3199 35.1306 18.3199H32.3479C31.7476 18.3199 31.9132 19.4677 31.9132 20.0798H31.0436C31.0436 19.1182 31.1513 16.5286 30.9567 15.7599C30.3322 15.4842 28.7574 15.5999 27.8263 15.5999C27.8263 12.6352 28.3056 13.0398 24.6089 13.0398V9.19981C24.6089 8.68713 24.2765 8.60398 23.7681 8.53338C23.3408 8.47406 22.8036 8.39984 22.2611 8.39984V0.399861C22.2611 0.213372 22.0291 -0.00012207 21.8263 -0.00012207H18.3481C18.1461 -0.00012207 18.0834 0.131079 17.9133 0.239847L17.9131 0.240059Z" fill="black"/>
<path fill-rule="evenodd" clip-rule="evenodd" d="M26.522 8.47998H30.0872V11.68H26.522V8.47998ZM25.4785 7.99994V12.3199C25.4785 12.5064 25.7105 12.7199 25.9133 12.7199H30.6959C30.8986 12.7199 31.1307 12.5064 31.1307 12.3199V7.99994C31.1307 7.61707 30.8363 7.43994 30.435 7.43994H26.1741C25.7727 7.43994 25.4785 7.61707 25.4785 7.99994Z" fill="black"/>
<path fill-rule="evenodd" clip-rule="evenodd" d="M31.2174 3.03992H33.3043V4.87993H31.2174V3.03992ZM30.0869 2.63994V5.1199C30.0869 5.48001 30.2514 5.91986 30.6087 5.91986H33.913C34.1948 5.91986 34.4348 5.57219 34.4348 5.2798V2.55988C34.4348 2.18637 34.2321 1.99988 33.8261 1.99988H30.6957C30.2796 1.99988 30.087 2.27068 30.087 2.63994H30.0869Z" fill="black"/>
<path fill-rule="evenodd" clip-rule="evenodd" d="M34.0874 8.55994H36.0874V10.3999H34.0874V8.55994ZM32.957 7.91988V11.0399C32.957 11.2264 33.189 11.4399 33.3918 11.4399H36.7831C37.0643 11.4399 37.2179 11.1495 37.2179 10.8799V8.07989C37.2179 7.70649 37.0152 7.5199 36.6092 7.5199H33.5657C33.2728 7.5199 32.957 7.66131 32.957 7.91988Z" fill="black"/>
<path fill-rule="evenodd" clip-rule="evenodd" d="M32.3481 14.4H34.4351V16.32H32.3481V14.4ZM31.3047 13.92V16.96C31.3047 17.2186 31.6203 17.3599 31.9134 17.3599H34.9569C35.3627 17.3599 35.5655 17.1734 35.5655 16.7999V13.8399C35.5655 13.1213 33.188 13.3599 32.1742 13.3599C31.6959 13.3599 31.3047 13.4659 31.3047 13.9199V13.92Z" fill="black"/>
<path fill-rule="evenodd" clip-rule="evenodd" d="M36.9569 3.75992H38.3482V5.03993H36.9569V3.75992ZM35.8264 3.11986C35.8264 6.51621 35.2796 6.07986 38.609 6.07986C39.7753 6.07986 39.4786 5.2917 39.4786 3.43989C39.4786 3.14984 39.4055 2.99334 39.3046 2.79983C38.51 2.6295 37.1338 2.71988 36.2612 2.71988C36.0584 2.71988 35.8264 2.93337 35.8264 3.11986Z" fill="black"/>
<path fill-rule="evenodd" clip-rule="evenodd" d="M37.4785 12.96H38.8698V14.24H37.4785V12.96ZM36.348 12.72C36.348 15.7824 35.986 15.2801 39.3915 15.2801C39.6846 15.2801 40.0002 15.1387 40.0002 14.8801V12.3201C40.0002 12.0614 39.6846 11.9201 39.3915 11.9201C37.1132 11.9201 36.348 11.6235 36.348 12.72Z" fill="black"/>
</g>
<defs>
<clipPath id="clip0_113_45">
<rect width="40" height="40" fill="white"/>
</clipPath>
</defs>
</svg>
