<svg width="40" height="40" viewBox="0 0 40 40" fill="none" xmlns="http://www.w3.org/2000/svg">
<g clip-path="url(#clip0_113_55)">
<path fill-rule="evenodd" clip-rule="evenodd" d="M18.8831 37.7738C18.8831 36.1275 21.1167 36.1352 21.1167 37.7738C21.1167 39.1809 18.8831 39.0386 18.8831 37.7738ZM32.5887 33.6079C30.8182 33.6079 31.1208 31.3725 32.4872 31.3725C33.9373 31.3725 33.9271 33.6079 32.5887 33.6079ZM6.39574 32.4903C6.39574 31.0487 8.62932 31.0006 8.62932 32.4903C8.62932 34.0113 6.39574 33.946 6.39574 32.4903ZM37.7664 21.1101C36.0734 21.1101 36.2247 18.8747 37.6649 18.8747C39.1151 18.8747 39.1049 21.1101 37.7664 21.1101ZM1.2182 19.9925C1.2182 18.5465 3.45177 18.4023 3.45177 20.0941C3.45177 21.3855 1.2182 21.5481 1.2182 19.9925ZM20 31.3725C16.9647 31.3725 14.1448 30.139 12.1573 28.1464C11.5416 27.5291 10.7128 26.6409 10.2881 25.8513C8.54695 22.6146 8.05023 19.3254 9.48337 15.7668C10.4917 13.2632 12.4225 11.1311 14.822 9.93315C17.2359 8.72821 18.247 8.71394 20.8119 8.71394C22.8412 8.71394 25.4408 9.81728 26.8729 10.9798C29.7752 13.3358 30.8367 15.5981 31.3011 19.152C31.6216 21.6051 30.6894 24.5032 29.2801 26.5367C29.0699 26.8401 28.8975 27.0778 28.6551 27.3338C26.5147 29.5944 24.0358 31.3723 20 31.3723V31.3725ZM6.39596 7.59633C6.39596 5.95388 8.62953 6.03653 8.62953 7.59633C8.62953 9.01981 6.39596 8.89499 6.39596 7.59633ZM32.4874 6.37711C33.895 6.37711 33.8805 8.61255 32.5889 8.61255H32.2843C30.9887 8.61255 30.9563 6.37711 32.4874 6.37711ZM18.8833 2.31286C18.8833 1.03166 21.1169 0.509381 21.1169 2.61766C21.1169 3.62621 18.8833 3.89523 18.8833 2.31286ZM17.6651 2.21125C17.6651 2.86687 17.8975 3.35783 18.1693 3.73889C18.4115 4.07841 18.8623 4.5042 19.3911 4.54829V7.49494C16.8198 7.49494 14.3272 8.63982 12.3848 10.0341C12.0185 10.297 12.0279 10.4043 11.5737 10.645L9.5668 8.69094C9.6532 8.22894 10.3355 7.05509 9.14413 5.86251C8.77723 5.49529 8.17494 5.1841 7.51264 5.18261C5.57169 5.17835 4.42777 7.56928 5.81325 9.09436C6.55068 9.9061 7.79867 10.0209 8.73105 9.52718L10.6835 11.5358C10.4062 11.9383 10.2016 12.1682 9.91923 12.5454C8.69295 14.1836 7.59457 16.6838 7.52094 18.7816C7.4888 19.6943 7.17148 19.3831 4.56845 19.3831C3.97659 16.8403 0 17.2455 0 19.9927C0 22.7132 3.96616 23.1899 4.56845 20.6023L7.11679 20.5919C7.54179 20.6371 7.49753 20.6707 7.52136 21.1016C7.6199 22.8802 8.31455 24.922 9.17819 26.3527C9.65661 27.1453 10.1797 27.7087 10.6599 28.4263L8.70742 30.4349C8.29412 30.3565 7.18936 29.6461 5.93349 30.8085C3.73057 32.8469 6.79606 36.2858 9.11051 34.1913C9.74536 33.6169 9.93498 32.7453 9.75983 31.9687C9.67044 31.5721 9.62128 31.6072 9.54296 31.2713L11.5499 29.3172C12.9847 30.2988 12.9168 30.5071 14.7869 31.4083C15.9921 31.9889 17.7717 32.4907 19.3907 32.4907V35.4374C18.3536 35.6791 17.6647 36.7067 17.6647 37.6728C17.6647 39.0786 19.6073 41.0242 21.5849 39.3609C23.0002 38.1704 22.2321 35.5726 20.6089 35.4374V32.4907C22.9127 32.4907 25.1082 31.6313 26.8439 30.5007C27.449 30.1066 27.8617 29.7192 28.4263 29.3409L30.4332 31.295C29.5808 33.0188 30.7507 34.8276 32.4872 34.8276C33.6279 34.8276 34.7207 33.8175 34.7207 32.6937V32.1857C34.7207 31.1096 33.5649 30.1535 32.4872 30.1535C31.93 30.1535 31.6854 30.3612 31.269 30.4583L29.3165 28.4497C29.7507 27.6633 30.5283 27.1794 31.4441 25.0451C31.9319 23.9083 32.4874 22.1704 32.4874 20.6023H35.4315C36.0338 23.1899 40 22.7132 40 19.9927C40 17.3132 36.0366 16.7832 35.4315 19.3831H32.4874C32.4874 17.9496 31.9132 15.9638 31.4388 14.9457C31.1391 14.302 30.8388 13.7382 30.4779 13.1642C30.0876 12.5437 29.4698 11.9047 29.2386 11.5594L31.2939 9.5521C33.5055 10.4916 34.7209 8.72012 34.7209 7.90156C34.7209 7.00397 34.8116 6.50534 33.9363 5.74024C33.5953 5.44226 32.9085 5.12915 32.3235 5.19518C30.3691 5.41563 29.6804 7.24594 30.4568 8.71458L28.4016 10.7219C27.3234 10.0365 27.6625 9.80727 25.1114 8.57762C24.0311 8.05684 22.157 7.49515 20.6091 7.49515V4.54851C22.8776 4.35957 23.0949 0.00733983 19.9998 0.00073682C18.7109 -0.00203218 17.6649 1.30323 17.6649 2.21168L17.6651 2.21125Z" fill="black"/>
<path fill-rule="evenodd" clip-rule="evenodd" d="M17.4612 16.6392C17.7655 16.8624 18.7032 19.9633 18.7809 20.2971H16.2428C16.3867 19.9967 17.4389 16.907 17.461 16.6392H17.4612ZM13.2988 25.3775C13.2988 25.7808 13.6938 25.8856 14.0094 25.8856C14.4327 25.8856 14.5398 25.3816 14.6583 25.0108C14.7969 24.5769 14.8954 24.2853 15.0544 23.8831C15.3132 23.2286 15.6822 22.1804 15.8367 21.5163H19.187L20.3665 24.9081C20.6174 25.6796 20.6027 25.8853 21.2175 25.8853C22.3102 25.8853 21.2077 23.6708 20.8244 22.5193L18.3621 15.2294C18.1984 14.7326 18.1616 14.0988 17.4612 14.0988C16.9483 14.0988 16.4484 15.9621 16.2043 16.7018L14.2508 22.469C14.0967 22.9312 13.2988 25.1194 13.2988 25.3773V25.3775Z" fill="black"/>
<path fill-rule="evenodd" clip-rule="evenodd" d="M22.5381 14.7088C22.5381 15.4488 23.44 15.3184 23.9593 15.3184V24.6664C22.9069 24.6664 22.1112 24.7925 22.8426 25.8856H26.3959C26.5558 25.6468 26.7677 25.5024 26.643 25.1411C26.4468 24.5733 25.7747 24.6662 25.2792 24.6662V15.3182H25.9899C26.8814 15.3182 26.8814 14.099 25.9899 14.099H23.2487C22.8386 14.099 22.5381 14.3203 22.5381 14.7086V14.7088Z" fill="black"/>
<path fill-rule="evenodd" clip-rule="evenodd" d="M10.457 20.6019C11.4972 20.6019 10.3382 18.3539 12.5058 15.0317C13.8949 12.9028 16.1551 11.5626 18.7507 11.1208C19.5507 10.9847 20.6094 11.3255 20.6094 10.3393C20.6094 9.7913 19.9625 9.83134 19.5943 9.83134C17.4526 9.83134 15.2904 10.773 13.7623 11.92C13.094 12.4216 12.825 12.7899 12.3611 13.2611C11.1222 14.5182 10.0213 16.8367 9.85616 18.6794C9.78444 19.4781 9.45818 20.6019 10.4572 20.6019H10.457Z" fill="black"/>
</g>
<defs>
<clipPath id="clip0_113_55">
<rect width="40" height="40" fill="white"/>
</clipPath>
</defs>
</svg>
