<svg width="40" height="40" viewBox="0 0 40 40" fill="none" xmlns="http://www.w3.org/2000/svg">
<g clip-path="url(#clip0_115_62)">
<path fill-rule="evenodd" clip-rule="evenodd" d="M18.3416 21.3298C18.3416 20.613 18.448 20.0985 19.0987 19.6823C20.4646 18.8086 20.4976 20.5122 20.4976 17.2667H21.7415C22.4112 20.1414 26.3766 20.1507 27.0485 17.2667H28.2925V24.9783H20.4979V23.3198C20.4979 22.5881 19.6786 22.8627 19.1712 22.5734C18.8673 22.4002 18.3419 21.7957 18.3419 21.3298H18.3416ZM17.2636 21.1638C17.2636 22.3536 18.354 23.7087 19.5025 23.7344V24.9783H11.7079V17.2667C14.7015 17.2667 13.5349 17.1614 14.1092 15.9364C14.6078 14.8725 16.3337 14.6013 17.0666 15.8884C17.7501 17.0886 16.3648 17.2667 19.5025 17.2667V18.4276C18.2812 18.7121 17.2636 19.6719 17.2636 21.1641V21.1638ZM12.9516 16.1884H10.9615C10.8472 16.3591 10.7129 16.4037 10.7129 16.6029V25.4756C10.7129 25.8723 10.9937 26.056 11.3763 26.056H28.6241C29.0067 26.056 29.2875 25.8723 29.2875 25.4756V16.6029C29.2875 15.9542 27.7862 16.1884 26.634 16.1884C25.8952 16.1884 26.2056 16.875 25.8647 17.4921C25.0785 18.915 22.9462 18.5205 22.7427 16.8459C22.6917 16.426 22.6793 16.2767 22.3082 16.2025C21.6647 16.0741 19.0993 16.1884 18.2592 16.1884C18.1669 15.0799 16.8933 13.9714 15.6057 13.9714C14.349 13.9714 13.0503 15.0096 12.9521 16.1884H12.9516Z" fill="black"/>
<path fill-rule="evenodd" clip-rule="evenodd" d="M29.95 37.8312C29.95 34.4288 32.4026 34.7632 34.5107 34.7632C35.2929 34.7632 35.8709 34.9951 36.3119 35.3665C37.2914 36.1911 37.1639 36.9722 37.1639 38.0801H29.9498V37.8315L29.95 37.8312ZM28.955 37.1678C28.955 38.3429 28.7532 39.1579 29.5355 39.1579H37.7447C38.4188 39.1579 38.2422 37.9483 38.2422 37.3337C38.2422 35.3767 36.6588 33.7681 35.0082 33.7681C32.7303 33.7681 31.3122 33.434 29.9275 34.8238C29.4029 35.3504 28.9547 36.1502 28.9547 37.1681L28.955 37.1678Z" fill="black"/>
<path fill-rule="evenodd" clip-rule="evenodd" d="M2.83456 37.4166C2.83456 34.4578 5.65457 34.7631 7.39517 34.7631C8.89676 34.7631 10.0487 35.7821 10.0487 37.2507V38.0798H2.83456V37.4163V37.4166ZM1.83953 36.9191C1.83953 38.4111 1.60643 39.1581 2.42001 39.1581H10.4635C11.2799 39.1581 11.127 38.3041 11.127 37.6655C11.127 35.4528 9.66293 33.7681 7.81001 33.7681H5.07352C3.51635 33.7681 1.83953 35.3622 1.83953 36.9191Z" fill="black"/>
<path fill-rule="evenodd" clip-rule="evenodd" d="M2.83501 10.2181C2.83501 8.88358 3.9099 7.73052 5.23962 7.73052C7.21276 7.73052 8.32462 7.43449 9.36735 8.495C10.1521 9.29305 10.0491 9.9661 10.0491 11.0472H2.83501V10.2181ZM1.83997 9.88652C1.83997 10.6566 1.77337 11.3184 1.92294 11.9596C2.79465 12.1627 9.13848 12.0425 10.5469 12.0425C10.771 12.0425 10.7755 12.003 10.9615 11.9596C11.3639 11.1209 11.1503 8.82743 10.1552 7.79034C8.82665 6.40588 7.36317 6.65252 5.40584 6.65252C3.4677 6.65252 1.84026 8.2111 1.84026 9.88652H1.83997Z" fill="black"/>
<path fill-rule="evenodd" clip-rule="evenodd" d="M29.9503 10.6326C29.9503 7.20982 32.739 7.73048 34.9257 7.73048C36.0302 7.73048 37.1647 8.79888 37.1647 10.0524V11.0474H29.9505V10.6329L29.9503 10.6326ZM28.9552 9.96916C28.9552 10.8606 28.7611 12.0422 29.3698 12.0422H37.8278C38.4004 12.0422 38.2424 10.8524 38.2424 10.2178C38.2424 8.15321 36.6065 6.65219 34.5109 6.65219C32.6283 6.65219 30.408 6.38608 29.3125 8.58526C29.1525 8.9064 28.9549 9.52441 28.9549 9.96916H28.9552Z" fill="black"/>
<path fill-rule="evenodd" clip-rule="evenodd" d="M35.0081 16.3542C35.0081 16.5898 35.1667 16.8517 35.5056 16.8517C36.2357 16.8517 36.3141 15.5731 36.8322 15.1932C36.839 15.5025 36.8712 15.485 36.9423 15.7466C37.7415 18.6823 37.6297 21.9606 36.778 24.8413C36.5633 25.5674 36.4225 25.7077 37.0811 26.0562C38.0621 26.1832 38.4907 21.3531 38.4907 20.8321C38.4907 18.6572 38.5249 18.0144 38.044 15.8888C37.9658 15.5434 37.8343 15.1735 37.8273 14.8616C38.0666 14.9883 39.2998 15.6907 39.4857 15.6907C39.8924 15.6907 40.4404 15.0231 39.4033 14.5292C39.0918 14.3808 38.9225 14.2487 38.6025 14.0864C36.9338 13.2396 36.8303 12.8798 36.2769 13.8917C36.0536 14.2998 35.0078 16.1519 35.0078 16.3542H35.0081Z" fill="black"/>
<path fill-rule="evenodd" clip-rule="evenodd" d="M22.9849 35.5094C22.9849 35.8884 23.4621 36.1201 23.7299 36.2569L24.726 36.8363C24.3753 36.8442 24.1123 36.9517 23.7522 37.0234C23.4672 37.0801 22.997 37.1842 22.7128 37.2277C18.0746 37.9383 15.1101 36.5874 14.4438 36.5874C14.1148 36.5874 14.0293 36.9099 14.0293 37.1679C14.0293 38.0703 19.268 38.4945 19.9998 38.4945C22.9013 38.4945 23.8868 37.9216 24.9752 37.831C24.8542 38.0596 24.1461 39.3312 24.1461 39.4895C24.1461 39.7252 24.3047 39.987 24.6436 39.987C25.1702 39.987 25.326 39.3925 25.749 38.6046C26.7415 36.7556 27.1764 36.8493 25.2512 35.8969C24.778 35.6626 22.9854 34.3354 22.9854 35.5091L22.9849 35.5094Z" fill="black"/>
<path fill-rule="evenodd" clip-rule="evenodd" d="M13.5315 3.00398C13.5315 3.55879 14.182 3.70412 14.8931 4.12996C15.1147 4.26259 16.4498 4.99405 16.5996 4.99405C16.8352 4.99405 17.0971 4.83546 17.0971 4.49653C17.0971 3.7552 15.8334 3.70835 15.4386 3.16992L17.5252 2.76891C19.6076 2.51465 21.3913 2.49716 23.4624 2.94105C24.5971 3.18431 26.0527 3.90589 26.0527 2.9213C26.0527 2.29905 24.2588 2.04479 23.7937 1.9463C22.9194 1.7609 21.9284 1.59299 20.9091 1.59694C20.2312 1.59948 20.1765 1.50297 19.4899 1.58227C18.1881 1.73268 18.2025 1.58481 16.5513 1.87829C16.0693 1.9638 15.6074 2.14046 15.1897 2.17517L15.7761 1.019C15.8797 0.839237 16.0352 0.650163 15.9686 0.400417C15.8831 0.0801216 15.302 -0.409211 14.8017 0.625894C14.5966 1.05032 13.5312 2.82648 13.5312 3.00398H13.5315Z" fill="black"/>
<path fill-rule="evenodd" clip-rule="evenodd" d="M1.508 20.0031L2.17145 24.9786C1.54836 24.8335 1.07793 24.2322 0.430002 24.2322C0.208758 24.2322 -0.513106 24.8025 0.623309 25.3657C4.08871 27.0826 2.81656 27.327 4.59215 24.4142C5.59198 22.774 4.24815 22.8226 3.93632 23.4265C3.78083 23.7276 3.36261 24.586 3.16649 24.73L2.79934 22.8584C2.48187 20.9507 2.48469 18.6929 2.86933 16.8038C3.2201 15.0799 3.87791 14.0332 2.8349 14.0332C1.91973 14.0332 1.50828 19.2598 1.50828 20.0037L1.508 20.0031Z" fill="black"/>
<path fill-rule="evenodd" clip-rule="evenodd" d="M33.4329 29.0414C35.958 29.0414 35.489 32.1925 33.6818 32.1925C32.6885 32.1925 32.0298 31.5937 31.981 30.6793C31.9372 29.8595 32.5612 29.0414 33.4329 29.0414ZM30.9453 30.3681C30.9453 34.3493 36.2523 34.0048 36.2523 30.534C36.2523 28.3472 33.4179 27.0776 31.7507 28.6859C31.4002 29.0239 30.9453 29.7255 30.9453 30.3681Z" fill="black"/>
<path fill-rule="evenodd" clip-rule="evenodd" d="M4.82511 30.6169C4.82511 29.9249 5.48913 29.0414 6.15173 29.0414C6.76466 29.0414 7.20292 29.0202 7.65895 29.5242C8.48269 30.434 7.99477 32.1924 6.40035 32.1924C5.5546 32.1924 4.82483 31.4525 4.82483 30.6169H4.82511ZM3.83008 30.2853C3.83008 31.1872 3.8995 31.8518 4.59399 32.5065C6.2584 34.0761 8.98867 33.0243 9.11284 30.6829C9.18819 29.264 8.03766 27.9634 6.23498 27.9634C5.1234 27.9634 3.83036 29.1867 3.83036 30.2853H3.83008Z" fill="black"/>
<path fill-rule="evenodd" clip-rule="evenodd" d="M4.82511 3.58444C4.82511 1.38103 8.05911 1.37567 8.05911 3.58444C8.05911 4.03144 7.81783 4.4474 7.58304 4.68389C7.00679 5.26465 6.07243 5.29174 5.35367 4.71436C5.10703 4.51598 4.82539 3.98432 4.82539 3.58444H4.82511ZM3.83008 3.25286V3.83334C3.83008 5.01124 5.11183 6.15527 6.31766 6.15527C7.56639 6.15527 8.44883 5.63066 8.91587 4.52444C9.79915 2.43194 7.64089 0.217525 5.51932 1.04493C4.63039 1.39147 3.83008 2.31596 3.83008 3.25286Z" fill="black"/>
<path fill-rule="evenodd" clip-rule="evenodd" d="M33.5159 1.92588C35.546 1.92588 35.6727 4.56105 34.1429 5.04107C31.6629 5.81938 31.2061 1.92588 33.5159 1.92588ZM30.9453 3.41843C30.9453 4.24245 31.1477 4.8297 31.7089 5.39128C33.3973 7.07968 36.2523 5.80498 36.2523 3.58436C36.2523 2.05541 35.066 0.946647 33.6649 0.872429C32.288 0.799339 30.9453 2.05371 30.9453 3.41871V3.41843Z" fill="black"/>
</g>
<defs>
<clipPath id="clip0_115_62">
<rect width="40" height="39.9875" fill="white"/>
</clipPath>
</defs>
</svg>
