<svg width="40" height="38" viewBox="0 0 40 38" fill="none" xmlns="http://www.w3.org/2000/svg">
<g clip-path="url(#clip0_115_120)">
<path fill-rule="evenodd" clip-rule="evenodd" d="M17.3334 33.2358V17.7929C17.3334 15.9404 18.4299 14.7716 20.2501 14.7716H35.7501C37.5181 14.7716 38.6668 15.9242 38.6668 17.7091V33.2358C38.6668 34.9886 37.6124 36.2571 35.8336 36.2571H20.1669C18.3881 36.2571 17.3337 34.9886 17.3337 33.2358H17.3334ZM16 17.1216V33.9074C16 34.3958 16.2125 35.0079 16.3863 35.3649C16.9857 36.5973 18.3677 37.6003 19.6668 37.6003H36.3335C36.8185 37.6003 37.4262 37.3863 37.7807 37.2113C39.0043 36.6076 40.0002 35.2157 40.0002 33.9074V17.2895C40.0002 15.2591 38.1902 13.429 36.1671 13.429H19.8338C18.9931 13.429 18.3674 13.6997 17.7534 14.1034C17.2038 14.4647 16.717 15.0124 16.4145 15.6083C16.24 15.9522 16.0003 16.6017 16.0003 17.1216H16Z" fill="black"/>
<path fill-rule="evenodd" clip-rule="evenodd" d="M-4.86585e-05 3.69279V20.4786C-4.86585e-05 21.3545 0.565973 22.4405 1.14251 23.0208C1.71874 23.6015 2.79696 24.1715 3.66672 24.1715H14.8334C15.1034 24.1715 15.3336 23.8067 15.3336 23.5002C15.3336 22.7099 14.6055 22.8277 13.8335 22.8286H7.16677C5.89864 22.8286 3.89189 23.004 2.97172 22.6052C1.97298 22.1726 1.33335 21.2318 1.33335 19.8072V4.3644C1.33335 2.51185 2.42982 1.34306 4.25006 1.34306H19.7501C20.9248 1.34306 21.7064 1.83898 22.2035 2.5648C22.7809 3.40806 22.6665 4.51891 22.6665 5.87492L22.6662 11.4983C22.6625 12.2045 22.5922 12.7568 23.333 12.7568C23.6377 12.7568 23.9996 12.5251 23.9996 12.2531V3.86038C23.9996 1.82995 22.1895 -0.000488281 20.1661 -0.000488281H3.83281C2.8149 -0.000488281 1.90803 0.45681 1.18952 1.1141C1.04292 1.24805 0.915483 1.44461 0.774133 1.61906C0.621338 1.80783 0.51865 1.97106 0.413178 2.17884C0.238732 2.52275 -0.000976562 3.17225 -0.000976562 3.69216L-4.86585e-05 3.69279Z" fill="black"/>
<path fill-rule="evenodd" clip-rule="evenodd" d="M23.3334 30.7178V26.3536C23.3334 25.0698 24.2254 24.1714 25.5001 24.1714H30.4999C31.7745 24.1714 32.6666 25.0698 32.6666 26.3536V30.7178C32.6666 32.0203 31.7931 32.9 30.4999 32.9H25.5833C24.2152 32.9 23.3334 32.072 23.3334 30.7178ZM25.3333 20.7305C25.3333 19.0075 26.3881 18.1287 28.0833 18.1287C31.0542 18.1287 30.6666 20.8844 30.6666 22.8288H25.3333V20.7305ZM23.9999 23.0805C22.9514 23.6394 22 24.6063 22 25.934V31.1374C22 32.6856 23.5459 34.2429 25.0834 34.2429H30.9168C32.4541 34.2429 34.0003 32.686 34.0003 31.1374V25.934C34.0003 24.6063 33.0486 23.6391 32.0003 23.0805C32.0003 21.4809 32.2162 19.5888 31.4309 18.4505C30.807 17.5462 29.5281 16.6372 28.0311 16.7419C26.4719 16.8506 25.4843 17.0951 24.582 18.463C23.7673 19.6988 24.0003 21.2946 24.0003 23.0805H23.9999Z" fill="black"/>
<path fill-rule="evenodd" clip-rule="evenodd" d="M7.08398 30.7178C7.08398 32.6831 7.14677 33.3613 8.02735 35.1391C8.33109 35.7525 9.45911 37.4321 10.2506 37.4321C10.8451 37.4321 11.198 36.6923 10.5976 36.1596L10.0953 35.6584C9.03939 34.3254 8.41738 33.2862 8.41738 31.1377C8.41738 29.9515 8.79009 28.7877 9.22342 28.0049C9.81109 26.9429 10.9175 26.0894 10.9175 25.6826C10.9175 24.8412 9.68954 24.2998 8.05736 27.2504C7.59309 28.0899 7.08398 29.4556 7.08398 30.7184V30.7178Z" fill="black"/>
<path fill-rule="evenodd" clip-rule="evenodd" d="M29.084 0.671373C29.084 1.47725 31.5841 2.18874 31.5841 6.63027C31.5841 7.69563 31.1087 8.81334 30.7236 9.5404C30.4944 9.97371 30.2194 10.3092 29.9299 10.6715C29.719 10.9353 29.084 11.3849 29.084 11.7499C29.084 12.059 29.6144 12.9343 30.4409 12.1094C32.2237 10.3301 33.0152 8.52301 32.9209 5.87797C32.8794 4.71541 32.7183 3.7815 32.1959 2.74074C31.8621 2.07629 31.6648 1.71961 31.2525 1.17291C31.0617 0.919959 30.8786 0.760154 30.6469 0.524029C30.2658 0.136198 30.2572 -0.000244141 29.6676 -0.000244141C29.4242 -0.000244141 29.0843 0.418115 29.0843 0.671062L29.084 0.671373Z" fill="black"/>
<path fill-rule="evenodd" clip-rule="evenodd" d="M4 11.5819C4 13.8995 4.35322 15.1244 5.51496 16.8542C6.13944 17.7841 6.92785 18.4417 7.86689 19.0176C8.01937 19.1111 8.77005 19.4712 8.91665 19.4712C9.27142 19.4712 9.61227 19.0457 9.55443 18.6606C9.48577 18.2012 9.1245 18.1158 8.77747 17.933C6.02716 16.4829 4.65046 12.9535 5.72652 9.87978C5.819 9.61562 6.06984 9.1362 6.05995 8.90444C6.04324 8.50601 5.13544 7.25966 4.38477 9.53556C4.17568 10.1698 4 10.7822 4 11.5819Z" fill="black"/>
<path fill-rule="evenodd" clip-rule="evenodd" d="M27.3337 30.1302V28.2839C27.3337 27.3356 28.6671 27.3356 28.6671 28.2839V30.1302C28.6671 31.0784 27.3337 31.0784 27.3337 30.1302ZM26.0003 28.0319C26.0003 29.595 25.5564 32.2282 28.0002 32.2282C30.444 32.2282 30.0001 29.5947 30.0001 28.0319C30.0001 27.0045 29.1242 26.1855 27.8335 26.1855C26.9167 26.1855 26.0003 27.1086 26.0003 28.0319Z" fill="black"/>
<path fill-rule="evenodd" clip-rule="evenodd" d="M10 11.2464V16.2819C10 16.8177 11.2459 17.1049 11.3365 16.2009C11.4129 15.4352 11.2255 11.6395 11.3863 11.2155C11.5573 10.7648 12.4432 10.38 12.6653 11.4993C12.7191 11.7709 12.6653 11.7389 12.8459 11.9049C13.2879 12.3108 14.0002 11.9575 14.0002 11.5819C14.0002 8.47454 10.0003 8.97669 10.0003 11.246L10 11.2464Z" fill="black"/>
<path fill-rule="evenodd" clip-rule="evenodd" d="M27.25 2.43374C27.25 3.06642 27.2497 2.90381 27.7712 3.41967C29.3452 4.9766 29.2605 7.59548 27.8049 9.03559C27.4925 9.34461 27.25 9.28138 27.25 9.90346C27.25 10.8835 28.6122 10.9386 29.7244 8.70259C30.626 6.88991 30.4404 4.59843 29.2756 2.9954C27.8479 1.03038 27.25 2.24278 27.25 2.43374Z" fill="black"/>
<path fill-rule="evenodd" clip-rule="evenodd" d="M9.75 30.8015C9.75 32.4434 9.94393 33.6702 11.1437 34.9371C12.5056 36.375 12.8433 34.9598 12.787 34.7072C12.6441 34.0683 11.0834 33.6424 11.0834 31.1373C11.0834 29.1361 12.5328 28.2396 12.7174 27.9072C13.1007 27.2166 12.0444 25.8344 10.5347 28.3184C10.1335 28.9788 9.75031 29.7884 9.75031 30.8015H9.75Z" fill="black"/>
<path fill-rule="evenodd" clip-rule="evenodd" d="M8.91699 5.1197C8.91699 6.86167 11.3698 4.31693 14.8352 6.04146C15.0897 6.16824 15.2849 6.25983 15.5345 6.42836C15.7015 6.54081 16.047 6.79843 16.2505 6.79843C16.7946 6.79843 17.2078 5.98414 16.6848 5.52186C16.3668 5.24088 15.4578 4.78513 15.0733 4.6272C13.4449 3.95838 11.7087 3.84375 9.98192 4.26211C9.46353 4.38765 8.9173 4.50166 8.9173 5.12032L8.91699 5.1197Z" fill="black"/>
<path fill-rule="evenodd" clip-rule="evenodd" d="M16.0004 12.0858C16.0004 12.9281 15.3738 14.1 16.5006 14.1C17.7402 14.1 17.4535 10.7737 16.7168 9.51797C15.2043 6.94053 14.5894 8.49154 14.6058 8.80274C14.6234 9.14073 15.0181 9.4619 15.2284 9.75783C15.6698 10.379 16.0004 11.3322 16.0004 12.0858Z" fill="black"/>
<path fill-rule="evenodd" clip-rule="evenodd" d="M7.5 9.39984C7.5 9.98767 8.24665 10.4465 8.79937 9.70139C9.53335 8.71203 10.4186 8.28682 11.6301 8.10427C12.2035 8.01767 12.6666 8.04851 12.6666 7.38561C12.6666 6.1078 9.82316 6.69188 8.18727 8.32949C7.94632 8.5706 7.5 8.97339 7.5 9.39984Z" fill="black"/>
<path fill-rule="evenodd" clip-rule="evenodd" d="M25.334 4.36419C25.334 5.54575 26.2508 4.79968 26.2508 6.37842C26.2508 7.26903 25.334 7.13663 25.334 7.97304C25.334 9.34525 27.6674 8.45526 27.6674 6.12672C27.6674 5.2467 26.814 3.86639 26.072 3.80129C25.7883 3.77637 25.334 4.07012 25.334 4.36419Z" fill="black"/>
<path fill-rule="evenodd" clip-rule="evenodd" d="M12.3333 31.2212C12.3333 32.2445 13.281 33.655 13.9998 33.655C14.3651 33.655 14.6664 33.3812 14.6664 32.8996C14.6664 32.1261 13.7496 32.3922 13.7496 31.2212C13.7496 30.0038 14.6664 30.4029 14.6664 29.4587C14.6664 28.7637 13.7239 28.3375 12.8684 29.6621C12.6191 30.048 12.333 30.6309 12.333 31.2212H12.3333Z" fill="black"/>
<path fill-rule="evenodd" clip-rule="evenodd" d="M12.667 13.2606V17.6249C12.667 18.2734 14.0004 18.2734 14.0004 17.6249V13.2606C14.0004 12.612 12.667 12.612 12.667 13.2606Z" fill="black"/>
<path fill-rule="evenodd" clip-rule="evenodd" d="M6.66699 12.0856C6.66699 13.674 7.50334 15.8624 8.58373 15.8624C8.85932 15.8624 9.16707 15.4717 9.16707 15.1911C9.16707 14.8344 8.88035 14.5606 8.70158 14.317C7.65954 12.8959 8.43712 11.4143 7.33385 11.4143C6.93083 11.4143 6.6673 11.6797 6.6673 12.0856H6.66699Z" fill="black"/>
<path fill-rule="evenodd" clip-rule="evenodd" d="M18 8.98014C18 9.32686 18.1797 9.63681 18.3031 10.0178C18.7921 11.5277 18.3758 12.841 19.3334 12.841C20.5771 12.841 19.767 10.0773 19.6149 9.61999C19.4311 9.06737 19.3244 8.30884 18.6665 8.30884C18.2635 8.30884 18 8.57424 18 8.98014Z" fill="black"/>
</g>
<defs>
<clipPath id="clip0_115_120">
<rect width="40" height="37.6" fill="white"/>
</clipPath>
</defs>
</svg>
