<svg width="40" height="40" viewBox="0 0 40 40" fill="none" xmlns="http://www.w3.org/2000/svg">
<g clip-path="url(#clip0_115_141)">
<path fill-rule="evenodd" clip-rule="evenodd" d="M18.2481 34.2859V33.8777C18.2481 31.7603 21.7318 31.7409 21.7318 33.8777C21.7318 34.4716 21.7321 34.7601 21.1758 35.2897C19.9507 36.4561 18.2481 35.2405 18.2481 34.2859ZM28.7822 34.1226C28.7674 34.0473 28.884 33.1736 28.9103 33.0243C29.0704 32.1149 29.5862 31.1615 30.2123 30.5505C32.3017 28.5112 35.4492 28.5448 37.3056 30.3872C40.3992 33.4575 38.7117 38.4865 33.9926 38.9305C33.7693 38.9515 33.1389 38.8695 32.8796 38.8247C32.5078 38.7605 32.2237 38.6448 31.9327 38.5322C30.5215 37.9861 29.3615 36.6924 28.9832 35.2309C28.9357 35.0472 28.8959 34.823 28.8796 34.6798L28.7822 34.1226L28.7822 34.1226ZM11.1148 34.2043C10.9456 35.0645 11.2474 34.8467 10.628 36.1742C10.1389 37.2226 9.11204 38.1245 7.98797 38.5556C6.59715 39.089 5.18809 39.0143 3.87516 38.3905C2.16982 37.5801 0.854789 35.3781 1.11026 33.6681C1.35052 32.06 1.61372 31.4184 2.75632 30.3047C5.44195 27.6869 10.4888 29.2702 11.0825 33.0932L11.1757 33.9625C11.1586 34.3496 11.176 33.8926 11.1148 34.2043ZM32.4318 20.0002C32.4318 19.1318 33.1905 18.2859 34.0907 18.2859C34.6942 18.2859 34.9873 18.2857 35.5254 18.8331C36.1666 19.4853 36.1666 20.5151 35.5254 21.1673C34.3457 22.3675 32.4318 21.4843 32.4318 20.0002H32.4318ZM11.8612 20.1635C11.8382 20.0461 12.0223 18.5979 12.0622 18.4021C12.1847 17.8003 12.3421 17.3618 12.5592 16.8504C13.3583 14.9679 14.7367 13.6937 16.5608 12.7887C18.982 11.5875 22.2419 11.8784 24.4867 13.3705C24.9557 13.6823 25.2289 13.9441 25.6296 14.2866C27.2845 15.7007 27.8679 17.7195 28.0987 19.8619C28.1913 20.7209 27.7756 22.314 27.4207 23.1501C26.6645 24.9314 25.163 26.386 23.4195 27.2122C20.83 28.4391 17.8776 28.106 15.4937 26.6293C14.2922 25.885 13.2853 24.6536 12.6619 23.3755C12.4341 22.9084 12.2832 22.4809 12.1419 21.9281L11.9455 20.652C11.9319 20.2922 11.8977 20.3486 11.8612 20.1635L11.8612 20.1635ZM5.88916 21.7145C3.95888 21.7145 3.50707 19.7969 4.45445 18.8331C5.64479 17.6222 7.54808 18.5391 7.54808 20.0002C7.54808 20.8511 6.78933 21.7145 5.88916 21.7145H5.88916ZM18.2481 6.12269C18.2481 5.5078 18.2582 5.20869 18.8461 4.67044C20.0336 3.58333 21.7318 4.73695 21.7318 5.71453V6.12269C21.7318 8.25956 18.2481 8.2401 18.2481 6.12269H18.2481ZM28.7822 6.20431C28.7163 5.86917 29.0067 4.61827 29.1946 4.16121C31.0467 -0.344275 38.2652 0.00434843 38.8819 5.90251C38.8987 6.06308 38.8256 6.7661 38.7864 6.98889C38.7293 7.31281 38.596 7.67031 38.486 7.91773C36.505 12.3727 30.1303 11.7537 28.9832 7.31262L28.7822 6.20431ZM11.1148 6.28597C11.0373 6.67966 11.1053 6.92581 10.9796 7.37747C10.7172 8.32055 10.1812 9.04831 9.51976 9.6958C8.10301 11.0826 5.68466 11.331 3.89751 10.4502C2.77993 9.89931 1.93686 9.03952 1.46703 7.86257C0.432072 5.26999 1.73472 2.42409 4.28801 1.44488C5.67883 0.91147 7.0879 0.986125 8.40082 1.60999C9.51897 2.1413 10.3264 3.1048 10.8076 4.22095C11.0083 4.68649 11.1922 5.67316 11.1757 6.04418C11.1586 6.43128 11.176 5.97425 11.1148 6.28598V6.28597ZM7.29112e-06 5.63289C7.29112e-06 7.65128 0.43762 8.95808 1.84552 10.3472C3.51767 11.9971 6.08077 12.4735 8.32737 11.7059C8.96788 11.4871 9.37794 11.182 9.87056 10.8574L13.0855 13.9791C12.5556 14.803 12.1837 14.8488 11.5766 16.2915C11.2252 17.1265 10.783 18.3055 10.783 19.4288C7.36372 19.4288 9.40775 19.5733 7.69542 17.896C6.61928 16.8419 4.73242 16.9546 3.67737 17.9867C2.5695 19.0704 2.62194 20.8855 3.63709 21.9717C4.94892 23.3755 7.37617 22.9832 8.29367 21.3871C8.90726 20.3197 8.08332 20.5716 10.783 20.5716C10.783 21.6368 11.2132 22.87 11.5523 23.6512C11.7615 24.1332 11.9616 24.5119 12.2413 24.9323L13.1054 26.041L9.8905 29.1627C8.60625 28.2993 7.54854 27.9186 5.88915 27.9186C2.94874 27.9186 0 30.6033 0 33.5512C0 34.6205 0.12952 35.6768 0.578602 36.5736C1.48699 38.3876 3.53323 40.0002 5.72327 40.0002H6.38682C9.46313 40.0002 12.276 37.2319 12.276 34.2043C12.276 31.7779 11.7851 31.4726 10.7 29.8777L13.8724 26.7958C14.0515 26.9072 14.1494 27.0355 14.3481 27.1854C14.9303 27.6246 15.5055 27.9885 16.2216 28.2803C17.0354 28.612 18.3231 29.0614 19.4093 29.0614C19.4093 32.4265 19.5561 30.4149 17.8519 32.1001C17.0903 32.8531 16.8871 34.2402 17.3606 35.241C17.4463 35.4223 17.4899 35.5024 17.6081 35.6505C19.4016 37.8972 22.893 36.7948 22.893 33.9594C22.893 32.8554 22.2516 31.9859 21.3991 31.5113C20.3145 30.9074 20.5706 31.7183 20.5706 29.0614C22.3344 29.0614 24.2513 28.2094 25.5841 27.2201C25.8261 27.0404 25.9143 26.9165 26.1279 26.7757L29.2594 29.8979C28.9229 30.4155 28.4694 30.9181 28.2015 31.5103C27.5416 32.9692 27.551 35.0775 28.2551 36.5189C29.1567 38.3644 31.2161 40.0002 33.4272 40.0002C34.9126 40.0002 36.2424 39.7581 37.3861 38.9169L38.5084 37.899C38.6649 37.725 38.6977 37.6849 38.8433 37.4938C41.1209 34.5038 39.8665 30.1543 36.5535 28.5152C35.0923 27.7922 33.1824 27.7718 31.6525 28.2945C31.012 28.5133 30.6019 28.8184 30.1093 29.143L26.8944 26.0214C27.4243 25.1975 27.7962 25.1516 28.4033 23.7089C28.7379 22.9138 29.1969 21.6305 29.1969 20.5716C32.6162 20.5716 30.5721 20.4272 32.2845 22.1044C34.0271 23.8114 37.1521 22.4304 37.1521 20.0002C37.1521 19.27 36.7158 18.4278 36.3428 18.0287C36.1851 17.8599 35.7714 17.554 35.532 17.4389C34.1526 16.7756 32.4153 17.345 31.6862 18.6134C31.0726 19.6808 31.8966 19.4288 29.1969 19.4288C29.1969 17.9003 28.5185 16.2404 27.7386 15.0681L26.8745 13.9594L30.0894 10.8377C30.5789 11.1669 31.0004 11.476 31.5907 11.6851C33.84 12.4821 36.4502 12.0089 38.1344 10.3472C39.9481 8.55765 40.5743 5.76933 39.4013 3.42685C39.0365 2.69844 38.7382 2.32921 38.1758 1.77572C37.6393 1.24767 37.2741 0.953376 36.5535 0.596852C34.9587 -0.1922 32.7251 -0.1922 31.1303 0.596852C30.3745 0.970769 30.0286 1.2647 29.4665 1.81652C27.4518 3.79422 27.1895 6.97228 28.6718 9.33334C28.8741 9.65555 29.0968 9.8536 29.2799 10.1227L26.1075 13.2046C25.2728 12.6855 25.2249 12.3179 23.7583 11.7201C22.9099 11.3743 21.7119 10.939 20.5706 10.939C20.5706 7.5739 20.4238 9.58556 22.128 7.90035C22.8895 7.14732 23.0928 5.76023 22.6193 4.75943C22.5336 4.57816 22.49 4.49798 22.3718 4.34994C21.2716 2.9717 19.358 2.67037 17.9868 3.90633C16.5571 5.19496 16.962 7.58785 18.5808 8.48913C19.6654 9.093 19.4093 8.28211 19.4093 10.939C17.5681 10.939 15.7692 11.7608 14.3958 12.7803C14.1538 12.96 14.0656 13.0839 13.852 13.2247L10.7205 10.1025C10.8133 9.95612 10.8647 9.9357 10.9974 9.76233L11.7784 8.49009C12.4382 7.03118 12.4289 4.92297 11.7248 3.48152C10.8217 1.6329 8.76857 0.000244141 6.55274 0.000244141C4.96482 0.000244141 3.83768 0.243672 2.586 1.07591L1.77005 1.74226C1.64799 1.86223 1.60543 1.95249 1.47146 2.10146C0.620526 3.04763 1.45822e-05 4.25565 1.45822e-05 5.63289H7.29112e-06Z" fill="black"/>
<path fill-rule="evenodd" clip-rule="evenodd" d="M14.7647 18.2858C14.7946 17.9323 14.8745 17.9823 15.1466 17.8454L15.7575 17.5485C16.9614 17.0079 18.6275 16.4891 19.9903 16.4891C20.7776 16.4891 22.1655 16.7818 22.9251 17.0302C23.8674 17.3383 23.9974 17.4613 24.7763 17.8205C25.0568 17.9499 25.1853 17.9241 25.2159 18.2858C24.4579 18.2692 21.8875 16.2714 18.5021 16.9844C17.7545 17.1419 16.6721 17.4722 16.0077 17.7948C15.6633 17.962 15.2232 18.2758 14.7647 18.2858ZM13.6035 18.1226C13.6035 18.7841 14.2585 19.4287 14.9306 19.4287C16.01 19.4287 18.1007 16.9406 22.6973 18.4789C23.1456 18.6289 23.4637 18.7686 23.8613 18.966C24.1521 19.1103 24.6993 19.4287 25.05 19.4287C25.784 19.4287 26.45 18.7525 26.3491 17.9901C26.1475 16.4672 21.8438 15.4287 20.4051 15.4287C17.9479 15.4287 16.6591 15.8451 14.5692 16.8689C14.2238 17.0381 13.8565 17.3078 13.7204 17.6662C13.7003 17.7191 13.6035 18.1115 13.6035 18.1226H13.6035Z" fill="black"/>
<path fill-rule="evenodd" clip-rule="evenodd" d="M16.2575 21.1428C16.3166 20.9251 16.3542 20.9343 16.5155 20.8253C17.1708 20.3824 18.8228 19.8367 19.5753 19.8367C21.1159 19.8367 21.6432 19.9393 23.0891 20.6234C23.4091 20.7749 23.6486 20.8701 23.7226 21.1428C23.0801 21.4463 22.6794 20.1632 19.6583 20.1632C17.8288 20.1632 16.7958 21.397 16.2575 21.1428H16.2575ZM16.4234 22.3673C17.5344 22.3673 18.7847 20.3985 21.8635 21.6664C22.2823 21.8389 23.136 22.3673 23.5568 22.3673C24.7241 22.3673 25.6231 20.6421 23.9182 19.8075C20.8637 18.3122 19.1165 18.3122 16.062 19.8075C14.3526 20.6443 15.2687 22.3673 16.4234 22.3673Z" fill="black"/>
<path fill-rule="evenodd" clip-rule="evenodd" d="M18.9115 24C18.9115 22.5101 21.0681 22.5152 21.0681 24C21.0681 24.8802 19.8699 25.3116 19.2574 24.7208C19.1031 24.572 18.9115 24.2808 18.9115 24ZM19.9898 26.1224C21.2328 26.1224 22.1144 25.1617 22.2107 24.0614C22.3053 22.9811 21.2926 21.7959 20.2386 21.7959H19.7409C18.6869 21.7959 17.6743 22.9811 17.7688 24.0614C17.8625 25.1321 18.7927 26.1224 19.9898 26.1224H19.9898Z" fill="black"/>
</g>
<defs>
<clipPath id="clip0_115_141">
<rect width="40" height="40" fill="white"/>
</clipPath>
</defs>
</svg>
