<svg width="40" height="44" viewBox="0 0 40 44" fill="none" xmlns="http://www.w3.org/2000/svg">
<g clip-path="url(#clip0_115_148)">
<path fill-rule="evenodd" clip-rule="evenodd" d="M19.3765 16.1825C19.4939 16.6179 19.7012 16.7342 19.7436 17.242H18.3585L19.3765 16.1825ZM20.0031 15.5974L22.6654 12.8924C22.984 13.1129 23.1354 13.4126 23.3561 13.716C23.9266 14.4994 24.5047 16.1227 24.5047 17.2423H20.6958C20.525 16.5089 20.3661 16.1393 20.0031 15.5974ZM16.8001 17.5884C16.8001 17.8541 16.8802 18.1078 17.1465 18.1078H19.7436C19.7093 19.6459 17.2765 21.1872 15.5212 19.56C13.2609 17.4648 16.0819 13.8407 18.7049 15.5971C18.4905 15.9171 16.8004 17.4336 16.8004 17.5881L16.8001 17.5884ZM23.3792 12.2211L26.0415 9.51611C27.1729 11.172 26.9825 10.3894 28.1417 12.7391C28.713 13.8972 29.1793 15.6084 29.1793 17.242H25.63C25.2333 17.242 25.462 16.8772 25.2154 15.8387C25.0789 15.2634 24.9713 14.9356 24.7671 14.4691C24.1938 13.1587 24.0362 13.2028 23.3792 12.2211ZM8.80595 7.97935C8.9933 8.31923 9.22475 8.35013 9.32812 8.67175C10.1716 8.2021 10.5239 7.50605 12.8044 6.58079C15.799 5.36593 19.0136 5.45413 22.0447 6.71674C22.6896 6.98528 23.287 7.33892 23.8294 7.70211C24.1862 7.94087 25.1539 8.60855 25.3701 8.93158L22.7525 11.5947C21.7343 10.9341 22.089 10.9456 20.5526 10.1998C18.7992 9.3487 16.1684 9.32904 14.412 10.0066C13.771 10.2537 12.4382 10.913 12.1252 11.3621L12.7294 11.9616L13.6659 11.3383C14.0005 11.1355 14.3758 10.9826 14.7342 10.8484C17.1498 9.94279 19.5495 10.415 21.5972 11.8388C21.8346 12.004 21.8747 12.0837 22.0803 12.2214L19.418 14.9264C19.0433 14.807 18.2397 14.1845 17.235 14.2087C15.6864 14.2458 14.3221 15.3427 13.9406 16.7207C13.5081 18.2842 14.1336 19.8732 15.4721 20.6476C16.8866 21.4658 18.5262 21.295 19.7234 20.0793C20.2812 19.5128 20.4888 18.9937 20.6953 18.108H24.5042C24.5042 18.5527 24.4777 18.601 24.4176 18.9532C24.6171 19.0302 24.6022 19.0718 24.7581 19.2316C24.9811 19.4602 24.9123 19.4313 25.1966 19.5588C25.3797 19.131 25.3558 18.5395 25.4564 18.108H29.1788C29.1788 21.8234 27.0889 25.339 24.1679 27.4575L24.7637 28.055C24.985 28.0067 25.1671 27.8438 25.3435 27.6912C25.5491 27.5134 25.6581 27.4308 25.8634 27.2589C27.8324 25.6104 29.4995 22.5164 29.9341 19.9027C30.0119 19.4352 30.1307 18.5555 30.1307 18.1083C30.7824 18.1083 30.7495 18.0853 31.1355 18.4021C31.5638 18.7538 33.0829 20.1821 33.4205 20.2723C33.2242 21.1144 33.0809 21.947 32.8261 22.7079C32.1854 24.6211 31.3366 26.23 30.1318 27.8047C29.929 28.0699 29.6021 28.4117 29.4383 28.6853L30.0234 29.2755L30.4138 28.8648C32.0689 27.1157 34.2359 22.6211 34.2865 20.3588H35.6612C35.5233 19.9774 35.6912 20.4004 35.4379 20.0726C35.1643 19.7192 35.3494 19.7591 34.9084 19.4754C34.8966 19.4678 34.8609 19.4681 34.8525 19.4409C34.8438 19.4133 34.8134 19.4198 34.7958 19.4063C33.3334 19.4063 33.8921 19.526 32.3694 18.2937C32.0495 18.035 32.0939 17.9755 31.6897 17.7617C31.7986 17.5988 31.8587 17.5398 32.0127 17.3918C32.0908 17.3165 32.1163 17.2957 32.1933 17.2272C32.2059 17.2156 32.2264 17.1982 32.2385 17.1876L32.3719 17.0693C32.168 16.7775 31.9464 16.7297 31.8537 16.3769C30.7265 17.1878 31.2574 17.2426 30.1315 17.2426C30.1315 15.8019 29.5552 13.7368 29.0088 12.4787C28.5667 11.4604 27.7816 10.1799 27.0353 9.34477C26.8721 9.16219 26.8044 9.13466 26.6687 8.93214C26.8047 8.72905 26.9153 8.53299 27.2268 8.49928L26.4092 7.68863C26.3979 8.06755 26.2971 8.083 26.0628 8.23974C25.7642 8.15997 25.864 8.16783 25.6496 7.96025C24.0769 6.4367 21.2152 5.19656 18.9717 4.94235C16.6546 4.68 14.6471 4.86258 12.5446 5.71565C10.3792 6.59428 10.2986 6.94174 8.80566 7.97992L8.80595 7.97935Z" fill="black"/>
<path fill-rule="evenodd" clip-rule="evenodd" d="M13.0777 38.7976H21.3882L20.8688 40.7021H18.3582C18.2936 40.7984 18.0984 40.9933 18.0984 41.0484C18.0984 41.6664 18.4523 41.5768 19.0492 41.5695C19.568 41.563 20.0899 41.568 20.609 41.568C20.4803 42.1208 20.1601 42.4338 19.4837 42.4338H14.9822C14.4423 42.4338 14.115 42.1689 13.9547 41.8164C13.8681 41.6262 13.6167 40.6799 13.5971 40.4428H16.2807C16.3962 40.2706 16.4383 40.2029 16.5406 40.0099C16.4383 39.817 16.3962 39.7493 16.2807 39.5771H13.3375C13.2123 39.3159 13.192 39.0361 13.0777 38.7979V38.7976ZM22.771 38.5378C22.5665 38.1532 22.448 38.1535 22.2502 37.8451C19.7562 38.0563 16.8866 37.9316 14.3763 37.9316C12.8859 37.9316 11.7957 38.0732 11.3426 36.983C11.1193 36.4457 11.2249 35.7893 11.1129 35.2219C10.9977 34.639 10.7972 34.1241 10.5674 33.6899H17.9175C18.0793 33.5812 18.3155 33.5935 18.5231 33.5935C18.4001 33.4351 18.1481 33.1674 17.9891 33.0205C17.6273 32.686 17.7209 32.9317 17.1818 32.7902L17.0518 32.7374H10.9137C9.24073 32.7424 10.5087 32.8683 8.1784 31.3175C7.05427 30.5692 5.65599 29.4506 4.85404 28.4091C4.56107 28.0288 4.25995 27.7257 3.97092 27.301C1.86198 24.2008 0.661167 20.7896 0.871555 16.8948C0.892903 16.4993 0.958632 16.4271 0.958632 15.9456L0.179438 15.2527C-0.05286 15.7299 0.00977894 17.7279 0.00584645 18.5405C-0.00679369 21 1.11256 24.6137 2.43022 26.5909C3.22234 27.7796 4.39759 29.5054 5.53408 30.4127C6.51861 31.1986 6.88461 31.5939 7.99919 32.2761C8.55507 32.6163 9.02276 33.0374 9.41713 33.5418C10.9677 35.5244 9.54887 37.1777 11.4704 38.4139C12.3477 38.9782 11.989 38.2263 12.6831 40.6641C13.2462 42.6427 13.3609 43.3068 15.3291 43.2989C16.5684 43.2938 19.7028 43.4511 20.3809 43.1562C22.1002 42.4085 21.7244 39.1204 22.6002 38.6235L22.7719 38.5372L22.771 38.5378Z" fill="black"/>
<path fill-rule="evenodd" clip-rule="evenodd" d="M30.6515 3.99717C31.0285 4.33704 30.9636 4.29856 32.0498 4.18368C32.2526 4.16205 32.4369 4.17946 32.6369 4.16486C32.9099 4.14491 32.9498 4.09042 33.2484 4.08396C32.8872 4.62327 31.4894 5.88616 30.9327 6.44289C30.0344 7.34118 30.2822 7.30411 29.5558 7.40326C28.9777 7.48219 28.0575 7.54652 27.3617 7.54652C27.3617 6.85721 27.519 6.10385 27.5322 5.37972C27.5449 4.69968 27.7926 4.64855 28.4654 3.97554C29.0221 3.41881 30.285 2.02109 30.8243 1.65986C30.8243 2.48007 30.6513 3.2396 30.6513 3.99717H30.6515ZM15.9261 0.447814L16.8766 1.31352C19.4984 1.31352 22.5517 1.89216 24.7062 3.10365C25.0789 3.31319 25.377 3.49016 25.7452 3.70953C26.1264 3.93677 26.3795 4.14407 26.7561 4.3435L26.4098 7.68809L27.2275 8.49874C27.714 8.49874 30.3187 8.27066 30.565 8.1524C31.1835 9.32147 31.5175 9.49591 32.299 11.2664C33.0273 12.9163 33.0335 13.4115 33.4217 15.0781L31.8543 16.3766C31.947 16.7297 32.1686 16.7772 32.3726 17.069C33.8043 16.1789 32.8551 15.9407 34.8068 15.9435C35.9899 15.9452 37.173 15.9435 38.3561 15.9435C36.3031 17.728 36.0146 17.5204 37.3674 18.5771L38.2696 19.4063H34.7967C34.8144 19.4195 34.8447 19.4131 34.8534 19.4409C34.8621 19.4681 34.8978 19.4678 34.9093 19.4754C35.3503 19.7591 35.1655 19.719 35.4388 20.0726C35.6921 20.4001 35.5242 19.9774 35.6621 20.3588L39.0522 20.3625C39.653 20.3661 39.6516 20.333 40.0007 20.099C40.0007 19.3558 39.8044 19.5605 38.9836 18.7788C38.632 18.444 37.9828 18.0227 37.75 17.6752L40.0007 15.7708C40.0007 14.8354 39.8811 15.0784 37.4901 15.0784C36.4225 15.0784 35.3548 15.0784 34.2871 15.0784C34.2871 13.9424 33.5133 11.8208 33.1377 10.947L31.7599 8.34256C31.6588 8.18442 31.5996 8.09117 31.4813 7.92853C31.367 7.77123 31.2788 7.67123 31.1706 7.5468C31.783 6.63249 34.4919 4.48676 34.9795 3.56459C34.8776 3.37162 34.8351 3.30392 34.7197 3.13174C33.5658 3.13174 32.6773 3.30477 31.6032 3.30477C31.6231 2.41041 31.863 1.35734 31.863 0.274785C31.6288 0.117766 31.5515 -0.128014 31.1611 0.0798461C31.081 0.122542 30.7274 0.501184 30.6296 0.599215C29.9822 1.24836 27.853 3.46628 27.4482 3.73734C25.5528 2.73428 25.8997 2.37895 22.568 1.25931C20.0369 0.408771 18.601 0.447534 15.9258 0.447534L15.9261 0.447814Z" fill="black"/>
<path fill-rule="evenodd" clip-rule="evenodd" d="M24.7649 28.0546L24.1691 27.4571C22.7396 28.3462 22.0363 28.8242 20.2652 29.277C13.987 30.8821 7.83578 27.2796 5.85914 21.3444C5.33275 19.7641 5.20101 18.1874 5.38078 16.2105C5.451 15.4381 5.67965 14.5361 5.90268 13.8755C6.37092 12.4876 7.02063 11.3632 7.93268 10.1921L9.32872 8.67165C9.22535 8.35003 8.99389 8.31913 8.80654 7.97925C7.65067 8.97557 6.81979 10.1003 6.02824 11.4042C4.23278 14.3622 3.97435 18.5512 5.01506 21.6694C5.90717 24.3423 6.98215 25.5533 8.72677 27.3069C10.2017 28.7894 13.0646 30.0433 15.0185 30.3647C17.7347 30.8113 20.5296 30.4205 22.8618 29.2765C23.3017 29.0607 24.5354 28.3889 24.7649 28.0546Z" fill="black"/>
<path fill-rule="evenodd" clip-rule="evenodd" d="M25.1976 19.559C24.9133 19.4314 24.9819 19.4604 24.7591 19.2317C24.6032 19.0719 24.6181 19.0301 24.4187 18.9534C24.4041 19.4073 24.053 20.2814 23.9131 20.6325C23.3482 22.0522 22.0134 23.4167 20.6682 24.14C20.1806 24.4024 19.5713 24.6125 19.0357 24.7583C17.1377 25.2746 14.9801 24.8209 13.4397 23.8929C10.3171 22.0114 9.04266 18.0191 10.6817 14.4995C11.08 13.6442 11.8648 12.7049 12.59 12.0799C12.603 12.069 12.6252 12.0502 12.6367 12.0403L12.7302 11.962L12.126 11.3625C11.2752 11.8903 10.3825 13.1058 9.9019 14.0664C8.05392 17.761 9.38141 22.3755 12.8344 24.585C14.9967 25.9686 18.1391 26.3987 20.7553 25.0928C22.3968 24.2735 23.7507 22.9993 24.565 21.3713C24.7358 21.0297 25.185 19.9635 25.1979 19.5593L25.1976 19.559Z" fill="black"/>
<path fill-rule="evenodd" clip-rule="evenodd" d="M17.0511 32.738L17.1811 32.7908C17.7201 32.9324 17.6266 32.6866 17.9884 33.0212C18.1474 33.1681 18.3991 33.4357 18.5224 33.5942C18.3151 33.5942 18.0788 33.5818 17.9168 33.6905H23.8984C23.8062 34.0863 23.6624 34.3253 23.5399 34.7172C23.4374 35.0447 23.3433 35.5674 23.3057 35.9545C23.2335 36.6977 23.3576 37.2739 22.2498 37.8457C22.4476 38.1539 22.5661 38.1536 22.7706 38.5384C23.7127 38.2901 24.2225 37.0505 24.2444 35.941C24.2969 33.2565 26.4798 32.4557 27.9005 31.2866C28.4435 30.8397 29.7479 29.8134 30.0235 29.2755L29.4384 28.6853C28.9179 28.9718 28.2053 30.0319 27.1185 30.7645C26.6682 31.0681 26.3079 31.3355 25.8365 31.6465C25.3618 31.9597 24.9335 32.2532 24.6773 32.738H17.0508H17.0511Z" fill="black"/>
<path fill-rule="evenodd" clip-rule="evenodd" d="M0.178711 15.2533L0.957905 15.9463C1.01436 13.3887 2.68932 9.66553 4.32215 7.62119C4.77438 7.05464 5.65779 5.96702 6.22912 5.55551C6.15047 5.26563 5.92239 5.03952 5.63251 4.95581C5.19404 5.22884 4.09097 6.46729 3.71514 6.92767C2.57303 8.32623 1.50199 10.268 0.92476 12.0152C0.664373 12.8031 0.178711 14.3115 0.178711 15.2533Z" fill="black"/>
<path fill-rule="evenodd" clip-rule="evenodd" d="M5.63281 4.95554C5.92269 5.03925 6.15078 5.26537 6.22943 5.55525C6.46257 5.40947 6.48672 5.32801 6.69767 5.14824C7.94371 4.0859 9.27991 3.30755 10.7698 2.64128C12.3102 1.95253 14.6935 1.31322 16.8761 1.31322L15.9255 0.44751C15.5121 0.45706 14.7621 0.578124 14.3261 0.657055C12.4916 0.989631 10.4656 1.63737 8.88554 2.5747C8.44033 2.83902 8.10944 3.00784 7.69287 3.28648C7.27659 3.56513 5.90303 4.5328 5.63281 4.95498V4.95554Z" fill="black"/>
</g>
<defs>
<clipPath id="clip0_115_148">
<rect width="40" height="43.3368" fill="white"/>
</clipPath>
</defs>
</svg>
