<svg width="40" height="40" viewBox="0 0 40 40" fill="none" xmlns="http://www.w3.org/2000/svg">
<g clip-path="url(#clip0_113_39)">
<path fill-rule="evenodd" clip-rule="evenodd" d="M19.3751 38.125C19.3751 37.0309 20.6251 37.0734 20.6251 38.125C20.6251 38.7542 19.3751 38.7542 19.3751 38.125ZM19.3372 0H20.4558C21.804 0.0678417 23.1733 0.37868 24.5434 0.925392C27.3611 2.04974 29.5005 4.52661 30.6259 7.34291C30.882 7.98358 31.0019 8.56717 31.1719 9.29688C32.6587 9.29688 33.7979 9.84362 34.5512 10.6051C35.02 11.079 35.2423 11.3284 35.5488 11.9512C36.2805 13.4375 35.9376 14.0867 35.9376 15C36.269 15.0276 36.5415 15.2253 36.8234 15.3642C37.5253 15.7103 38.2846 16.3536 38.7398 16.9635C39.5087 17.9938 39.926 19.1545 40.0001 20.3168V21.0736C39.9038 22.5634 39.2411 24.0096 38.0285 25.1378C36.1123 26.9205 33.8193 26.7188 31.3282 26.7188C31.3282 28.3965 31.6109 29.375 30.4689 29.375H25.3907V33.2813H31.4845C31.6464 32.5862 32.4988 31.9532 33.3595 31.9532C34.9313 31.9532 36.12 33.9653 34.7872 35.4121C33.6571 36.6388 31.5727 35.7473 31.4845 34.6876L25.3123 34.6878C24.606 34.6909 23.9845 34.705 23.9845 33.9844V29.3751H20.7032V35.9376C20.7032 36.1737 20.9434 36.2085 21.1508 36.3493C22.8147 37.4788 21.8654 40.0001 20.1563 40.0001C18.8171 40.0001 17.9688 39.131 17.9688 37.9688C17.9688 36.4901 19.2969 36.2765 19.2969 35.9376V29.3751H16.0156V33.9844C16.0156 34.7279 15.3579 34.6896 14.6095 34.6877L8.51565 34.6876C8.34953 35.4007 7.53564 36.0157 6.64066 36.0157C5.48562 36.0157 4.53975 34.9279 4.6269 33.9256C4.84945 31.3665 8.10499 31.5185 8.51565 33.2813H14.6094V29.375H9.53127C8.37411 29.375 8.6719 28.4784 8.6719 26.7188H7.26563C2.67907 26.7188 0.101362 23.5958 0 20.2648V19.8346C0.0571104 18.136 0.758625 16.4161 2.16637 15.057C2.41399 14.818 3.1868 14.2285 3.51562 14.1407C3.0983 12.3494 3.40689 10.4706 4.62785 9.15919C6.11291 7.56417 7.27538 7.3438 9.37499 7.3438C9.48927 7.10565 9.57799 6.8097 9.68835 6.56341C10.3974 4.98115 11.7447 3.33007 13.1024 2.3212C15.05 0.873986 17.1578 0.110644 19.3372 3.08371e-05L19.3372 0ZM33.2032 33.3594C33.4494 33.3594 33.5791 33.3303 33.7874 33.5565C34.621 34.4615 32.763 35.145 32.6788 34.0518C32.6582 33.7848 32.9282 33.3594 33.2032 33.3594ZM6.7188 34.6094C5.72134 34.6094 5.88141 33.3594 6.64066 33.3594C7.5003 33.3594 7.53185 34.6094 6.7188 34.6094ZM10.0001 24.0625H30.0001V27.9688H10.0001V24.0625ZM12.0313 21.3281H27.9688V22.6563H12.0313V21.3281ZM10.0001 16.0156H30.0001V20H10.0001V16.0156ZM4.68755 12.6563C4.68755 10.4009 6.64223 8.6719 8.67193 8.6719C10.2713 8.6719 9.97717 9.50728 10.7913 7.50999C13.3167 1.314 21.6121 -1.09894 27.2469 4.47203C28.5426 5.75313 29.517 7.78678 29.8222 9.63109C30.0619 11.0802 30.3141 10.7032 31.4845 10.7032C33.0573 10.7032 34.6095 12.1965 34.6095 13.75C34.6095 15.0685 34.3751 15.0653 34.3751 15.4688C34.3751 16.5737 36.716 15.809 38.0743 18.4883C39.6973 21.6899 37.4367 25.3125 33.9844 25.3125H31.3282C31.3282 22.3471 31.645 22.6563 29.3751 22.6563V21.3282C30.3651 21.3282 31.3282 21.528 31.3282 20.7032V15.3126C31.3282 14.8171 30.8817 14.6094 30.3907 14.6094H9.68758C9.12579 14.6094 8.67193 14.7554 8.67193 15.3126V20.7032C8.67193 21.528 9.63507 21.3282 10.6251 21.3282V22.6563C8.35508 22.6563 8.67193 22.3472 8.67193 25.3125C7.19008 25.3125 5.695 25.4501 4.41431 24.8045C0.104106 22.6316 0.753999 17.1425 4.00969 15.4159C4.96006 14.9119 5.2495 14.9647 4.87973 13.8705C4.77436 13.5587 4.68755 13.0353 4.68755 12.6563Z" fill="black"/>
<path fill-rule="evenodd" clip-rule="evenodd" d="M11.3281 25.9376C11.3281 27.8606 13.9844 27.7063 13.9844 26.0938C13.9844 24.0551 11.3281 24.32 11.3281 25.9376Z" fill="black"/>
<path fill-rule="evenodd" clip-rule="evenodd" d="M11.3281 17.9688C11.3281 18.4257 11.4236 18.6624 11.6942 18.9308C12.7171 19.9453 13.9844 18.968 13.9844 18.2031C13.9844 15.9257 11.3281 16.3909 11.3281 17.9687V17.9688Z" fill="black"/>
</g>
<defs>
<clipPath id="clip0_113_39">
<rect width="40" height="40" fill="white"/>
</clipPath>
</defs>
</svg>
